# xmcd CD database file
#
# Track frame offsets:
#	150
#	21587
#	42707
#	68257
#	85370
#	109132
#	126675
#	145097
#	160577
#
# Disc length: 2381 seconds
#
# Revision: 0
# Processed by: cddbd v1.5PL3 Copyright (c) Steve Scherf et al.
# Submitted via: CDex 1.51
#
DISCID=7e094b09
DTITLE=カズン - おかえりなさい
DYEAR=2003
DGENRE=New Age
TTITLE0=涙のゆくえ
TTITLE1=sound of snow falling
TTITLE2=手をつなごう
TTITLE3=花冷え
TTITLE4=ひまわり
TTITLE5=月と星と太陽と
TTITLE6=未来の空気
TTITLE7=おかえりなさい
TTITLE8=花冷え (live version)
EXTD=YEAR: 2003
EXTT0=
EXTT1=
EXTT2=
EXTT3=
EXTT4=
EXTT5=
EXTT6=
EXTT7=
EXTT8=
PLAYORDER=
